<?xml version="1.0" encoding="utf-8"?>
<!-- Generator: Adobe Illustrator 27.5.0, SVG Export Plug-In . SVG Version: 6.00 Build 0)  -->
<svg version="1.1" xmlns="http://www.w3.org/2000/svg" xmlns:xlink="http://www.w3.org/1999/xlink" x="0px" y="0px"
	 viewBox="0 0 737 500" style="enable-background:new 0 0 737 500;" xml:space="preserve">
<g id="BACKGROUND">
	<rect x="-0.374" style="fill:#FFF8F3;" width="737.749" height="500"/>
</g>
<g id="OBJECTS">
	<path style="opacity:0.4;fill:#FFC95C;" d="M599.88,261.917L178.25,459.219c-42.11,19.705-92.686,1.374-112.391-40.735l0,0
		c-19.705-42.11-1.374-92.686,40.735-112.391l421.63-197.302c42.11-19.705,92.686-1.374,112.391,40.735v0
		C660.321,191.635,641.99,242.211,599.88,261.917z"/>
	
		<polyline style="fill:none;stroke:#211D1D;stroke-width:1.0531;stroke-linecap:round;stroke-linejoin:round;stroke-miterlimit:10;" points="
		412.477,480.199 428.093,381.203 486.27,380.908 503.858,476.259 	"/>
	<path style="fill:#B82B12;" d="M481.617,376.182h-71.788c-5.946,0-10.811-5.605-10.811-12.456l0,0
		c0-6.851,4.865-12.457,10.811-12.457h71.788c5.946,0,10.811,5.605,10.811,12.457l0,0
		C492.428,370.576,487.563,376.182,481.617,376.182z"/>
	<path style="fill:#B82B12;" d="M474.77,376.629c-5.131-21.746,7.081-44.932,25.288-57.883
		c18.207-12.951,41.224-17.252,63.552-18.086l-23.52,75.924L474.77,376.629z"/>
	
		<polyline style="fill:none;stroke:#211D1D;stroke-width:1.0433;stroke-linecap:round;stroke-linejoin:round;stroke-miterlimit:10;" points="
		464.604,479.089 480.246,381.944 538.423,381.67 555.986,475.247 	"/>
	<path style="fill:#2D1A14;" d="M433.239,382.219h112.675c1.464,0,2.663-1.198,2.663-2.663v-0.754c0-1.465-1.198-2.663-2.663-2.663
		H433.239c-1.464,0-2.663,1.198-2.663,2.663v0.754C430.576,381.021,431.774,382.219,433.239,382.219z"/>
	<g>
		<g>
			<g>
				<g>
					<g>
						<path style="fill:#FF8772;" d="M497.517,183.372c-0.535,2.886-0.845,5.816-0.926,8.752c-0.122,4.394,0.434,9.189,3.446,12.339
							c-1.867,2.614-4.699,4.761-7.775,5.56c-3.076,0.799-6.423,0.469-9.292-0.915c-0.783-0.378-1.528-0.829-2.272-1.281
							c-0.913-0.553-1.826-1.107-2.739-1.66c3.957-6.939,7.339-14.616,6.279-22.566c1.975-0.375,4.772-1.222,6.747-1.597
							c0.857-0.162,1.723-0.326,2.593-0.288C494.961,181.777,496.154,183.609,497.517,183.372z"/>
						<path style="fill:#2D1A14;" d="M482.188,197.489c1.721-4.465,2.685-9.126,2.05-13.888c1.975-0.374,4.772-1.222,6.747-1.597
							c0.58-0.11,1.163-0.215,1.75-0.263C493.055,188.792,488.546,195.495,482.188,197.489z"/>
						<path style="fill:#D6874C;" d="M477.963,257.706l15.793-0.903c12.53-0.717,23.359,9.134,24.063,21.889l1.667,30.212
							c-0.101,0.306-0.159,0.648-0.16,1.027c-0.014,4.595,1.515,3.601,1.797,3.56c0,0,0.487,8.472-3.59,20.568
							c-2.704,8.023-9.798,13.767-18.103,14.446c-0.204,0.017-0.408,0.031-0.611,0.042l-15.793,0.903
							c-12.008,0.687-22.948-17.194-24.455-29.852c0.052-0.528-0.312-5.077-0.52-8.516c0,0-1.616-28.425-1.591-28.882
							C455.757,269.446,465.433,258.423,477.963,257.706z"/>
						<path style="fill:#B82B12;" d="M449.822,239.389c0.272-3.948,0.787-7.862,1.303-11.788c0.472-3.604,1.036-7.278,2.265-10.752
							c0.562-1.59,1.273-3.244,2.363-4.582c0.957-1.174,2.173-2.052,3.539-2.812c1.995-1.114,4.155-1.911,6.263-2.806
							c1.816-0.282,3.76-0.386,5.875-0.463c0.41-0.014,0.827-0.029,1.251-0.043c0.242-0.008,0.487-0.016,0.734-0.025
							c0.085-0.002,0.17-0.005,0.257-0.008c0.203-0.006,0.409-0.014,0.615-0.021c0.822-0.03,1.67-0.067,2.545-0.113
							c1.121-0.06,2.242-0.132,3.362-0.208c7.037-0.482,14.052-1.225,21.109-1.42c0.697-0.019,1.399-0.035,2.11-0.044
							c1.936-0.027,3.901-0.011,5.866,0.076c0.058,0.003,0.117,0.005,0.175,0.008c0.882,0.041,1.763,0.097,2.642,0.168
							c4.423,0.365,8.773,1.165,12.709,2.747c0.626,0.252,1.271,0.514,1.925,0.794c0.055,0.024,0.11,0.046,0.165,0.07
							c5.875,2.503,12.493,6.124,13.855,12.312c1.922,8.722-1.56,19.741-3.096,28.396c-0.01,0.06-0.022,0.12-0.032,0.181
							c-0.068,0.392-0.138,0.79-0.212,1.19c-0.432,2.417-0.919,4.973-1.444,7.633c-1.478,7.516-3.248,15.843-4.884,24.087
							c-0.003,0.016-0.007,0.032-0.01,0.048c-0.235,1.179-0.467,2.357-0.694,3.531c-0.871,4.488-1.685,8.912-2.372,13.127
							c-1.024,6.281-4.706,13.33-10.848,15.611c-3.448,1.28-7.81,0.979-11.429,1.244c-4.895,0.358-9.797,0.618-14.705,0.7
							c-1.76,0.03-3.521,0.038-5.281,0.024c-3.444-0.03-6.888-0.156-10.323-0.413c-3.261-0.244-6.501-0.554-9.677-1.335
							c-1.197-0.294-2.38-0.641-3.544-1.039c-0.979-0.335-2.082-0.646-2.889-1.298c-0.224-0.179-0.432-0.371-0.627-0.574
							c-0.38-0.39-0.711-0.822-0.993-1.284c-0.56-2.122-1.034-4.269-1.6-6.375c-0.452-1.681-0.921-3.357-1.383-5.035
							c-1.044-4.41-2.138-8.819-3.027-13.263c-0.407-2.768-0.67-5.55-0.926-8.341c-0.379-4.161-0.695-8.327-0.926-12.499
							C449.367,256.336,449.239,247.844,449.822,239.389z"/>
						<path style="fill:#FF8772;" d="M482.221,197.419c-1.156,3.016-2.662,5.943-4.262,8.748c0.913,0.553,1.826,1.107,2.739,1.66
							c0.744,0.451,1.49,0.903,2.272,1.281c2.869,1.384,6.216,1.713,9.292,0.915c3.076-0.799,5.908-2.946,7.775-5.56
							c-1.816-1.9-2.738-4.397-3.158-7.044H482.221z"/>
					</g>
					<g>
						<path style="fill:#2D201B;" d="M492.588,170.541c-2.802,0.612-4.343,3.56-3.943,6.204c0.4,2.644,2.295,4.956,4.435,6.831
							c1.074-3.222,1.834-6.06,2.908-9.282c0.404-1.21,0.68-2.795-0.471-3.566C494.871,170.295,493.347,170.375,492.588,170.541z"/>
						<path style="fill:#FF8772;" d="M479.344,185.613c0.004,0.102,0.01,0.204,0.017,0.306c0.004,0.051,0.008,0.104,0.012,0.155
							c0.003,0.032,0.005,0.064,0.009,0.097c0.009,0.098,0.02,0.195,0.033,0.292c0.004,0.029,0.008,0.058,0.012,0.087
							c0.02,0.141,0.043,0.282,0.069,0.421c0.028,0.148,0.059,0.295,0.093,0.441c0.012,0.052,0.025,0.103,0.038,0.154
							c0.008,0.031,0.016,0.062,0.025,0.093c0.032,0.124,0.068,0.246,0.106,0.368c0.09,0.295,0.196,0.584,0.315,0.867
							c0.028,0.068,0.058,0.136,0.088,0.203c0.272,0.606,0.604,1.178,0.99,1.708c0.084,0.115,0.17,0.227,0.258,0.337
							c0.048,0.06,0.096,0.118,0.145,0.177c0.082,0.096,0.164,0.191,0.249,0.284c0.207,0.228,0.426,0.445,0.654,0.652
							c0.107,0.096,0.216,0.189,0.326,0.281c0.453,0.373,0.94,0.702,1.456,0.983c0.389,0.213,0.795,0.396,1.215,0.551
							c0.092,0.034,0.185,0.066,0.277,0.097c0.066,0.022,0.132,0.044,0.199,0.063c0.036,0.011,0.072,0.023,0.109,0.033
							c0.034,0.01,0.068,0.019,0.102,0.028c0.108,0.031,0.216,0.06,0.326,0.085c0.649,0.155,1.323,0.24,2.015,0.246
							c0.152,0.001,0.303-0.001,0.453-0.007c1.689-0.069,3.268-0.606,4.611-1.488c2.528-1.661,4.222-4.542,4.251-7.817l0.02-2.222
							l0.058-6.536l0.018-2.044l0.025-2.821c0.001-0.155-0.001-0.31-0.007-0.463c-0.003-0.076-0.007-0.152-0.012-0.227
							c-0.003-0.061-0.007-0.12-0.013-0.179c-0.004-0.06-0.01-0.12-0.017-0.18c0-0.015-0.002-0.029-0.004-0.043
							c-0.003-0.037-0.008-0.074-0.013-0.11c-0.004-0.044-0.01-0.087-0.016-0.131c-0.003-0.027-0.007-0.053-0.01-0.08
							c-0.009-0.064-0.019-0.128-0.029-0.192c-0.008-0.054-0.018-0.108-0.028-0.162c-0.005-0.032-0.011-0.063-0.017-0.095
							c-0.023-0.125-0.05-0.249-0.079-0.372c-0.015-0.069-0.033-0.14-0.051-0.208c-0.016-0.064-0.033-0.127-0.051-0.191
							c-0.017-0.062-0.036-0.124-0.054-0.186c-0.001-0.002-0.001-0.004-0.002-0.005c-0.019-0.062-0.038-0.123-0.058-0.185
							c-0.02-0.062-0.041-0.124-0.063-0.186c-0.021-0.061-0.044-0.123-0.066-0.184c-0.046-0.124-0.095-0.246-0.146-0.368
							c-0.01-0.023-0.02-0.046-0.03-0.069c-0.043-0.1-0.087-0.199-0.133-0.297c-0.011-0.023-0.022-0.045-0.033-0.068
							c-0.049-0.101-0.099-0.201-0.151-0.3c-0.008-0.016-0.016-0.031-0.025-0.047c-1.549-2.915-4.569-4.92-8.04-4.952
							c-3.903-0.036-7.284,2.433-8.658,5.925c-0.414,1.05-0.646,2.192-0.656,3.386l-0.122,13.624
							C479.335,185.299,479.337,185.456,479.344,185.613z"/>
						<path style="fill:#FF8772;" d="M502.929,179.868c-0.018,1.999-1.624,3.604-3.587,3.586s-3.54-1.653-3.522-3.652
							c0.018-1.999,1.624-3.604,3.587-3.586C501.369,176.235,502.947,177.87,502.929,179.868z"/>
						<path style="fill:#2D1A14;" d="M480.114,168.132c1.513,1.055,3.459,1.611,5.314,1.696c3.165,0.146,6.291-0.725,9.457-0.87
							c0.255-0.011,0.523-0.015,0.767,0.048c0.13,0.033,0.252,0.084,0.363,0.162l1.213,7.783l0.23,1.477
							c0.019-0.573,0.066-1.146,0.129-1.722c0.081-0.732,0.19-1.466,0.307-2.198l0.025-2.821c0.001-0.155-0.001-0.31-0.007-0.463
							c-0.003-0.076-0.007-0.152-0.012-0.227c-0.003-0.061-0.007-0.12-0.013-0.179c-0.004-0.06-0.01-0.12-0.017-0.18
							c0-0.015-0.002-0.029-0.004-0.043c-0.003-0.037-0.008-0.074-0.013-0.11c-0.004-0.044-0.01-0.087-0.016-0.131
							c-0.003-0.027-0.007-0.053-0.01-0.08c-0.009-0.064-0.019-0.128-0.029-0.192c-0.008-0.054-0.018-0.108-0.028-0.162
							c-0.005-0.032-0.011-0.063-0.017-0.095c-0.023-0.125-0.05-0.249-0.079-0.372c-0.015-0.069-0.033-0.14-0.051-0.208
							c-0.016-0.064-0.033-0.127-0.051-0.191c-0.017-0.062-0.036-0.124-0.054-0.186c-0.001-0.002-0.001-0.004-0.002-0.005
							c-0.019-0.062-0.038-0.123-0.058-0.185c-0.02-0.062-0.041-0.124-0.063-0.186c-0.021-0.061-0.044-0.123-0.066-0.184
							c-0.046-0.124-0.095-0.246-0.146-0.368c-0.01-0.023-0.02-0.046-0.03-0.069c-0.043-0.1-0.087-0.199-0.133-0.297
							c-0.011-0.023-0.022-0.045-0.033-0.068c-0.049-0.101-0.099-0.201-0.151-0.3c-0.008-0.016-0.016-0.031-0.025-0.047
							c-1.549-2.915-4.569-4.92-8.04-4.952C484.868,162.171,481.487,164.639,480.114,168.132z"/>
						<path style="fill:#2D1A14;" d="M497.436,166.057c1.021,0.51,1.675,1.574,1.961,2.678c0.286,1.105,0.251,2.264,0.215,3.404
							c-0.04,1.272-0.081,2.544-0.121,3.815c-1.185,0.769-2.256,2.315-2.638,3.675c-3.287-4.291-4.604-10.507-2.954-15.653"/>
					</g>
				</g>
			</g>
		</g>
		<path style="fill:#D6874C;" d="M516.145,331.383c-2.145-7.693-10.12-12.191-17.813-10.046c-0.499,0.139-1,0.31-1.472,0.497
			l-60.519,24.128l-0.942,0.376c-4.167,1.661-6.652,5.75-6.499,9.99l3.737,98.462c0.151,3.979,3.499,7.082,7.477,6.931
			c3.786-0.143,7.61-2.573,7.761-6.295l6.998-87.883l51.226-18.347C513.793,347.051,518.29,339.076,516.145,331.383z"/>
		<path style="fill:#D6874C;" d="M456.035,319.433l-60.52,24.128l-0.942,0.375c-4.167,1.661-6.652,5.75-6.499,9.991l3.737,98.462
			c0.151,3.979,3.499,7.082,7.477,6.931c3.786-0.144,6.779-3.209,6.931-6.931l3.737-98.462l-7.441,10.366l62.758-17.498
			c7.693-2.145,12.19-10.12,10.046-17.813c-2.145-7.693-10.12-12.191-17.813-10.046
			C457.007,319.075,456.507,319.246,456.035,319.433z"/>
		<g>
			<path style="fill:#2D1A14;" d="M397.489,449.674c-2.342-1.253-4.366-3.504-5.936-5.744c-1.272,2.307-3.146,4.265-5.452,5.494
				c-3.404,1.815-7.37,2.084-11.07,3.135c-7.22,2.051-13.509,7.296-16.913,14.104h48.862v-16.819
				C404.028,451.36,400.601,451.339,397.489,449.674z"/>
			<path style="fill:#2D1A14;" d="M397.489,449.674c-2.338-1.251-4.36-3.498-5.929-5.735c-1.277,2.303-3.156,4.256-5.458,5.484
				c-3.404,1.815-7.37,2.084-11.07,3.135c-7.22,2.051-13.509,7.296-16.913,14.104h48.862v-16.819
				C404.028,451.36,400.601,451.339,397.489,449.674z"/>
			<path style="fill:#2D1A14;" d="M359.221,469.306h47.569c1.353,0,2.46-1.129,2.46-2.508l0,0c0-1.38-1.107-2.509-2.46-2.509
				h-47.569c-1.353,0-2.461,1.129-2.461,2.509l0,0C356.761,468.178,357.868,469.306,359.221,469.306z"/>
			
				<path style="fill:none;stroke:#B7A091;stroke-width:0.9949;stroke-linecap:round;stroke-linejoin:round;stroke-miterlimit:10;" d="
				M389.353,463.936c0,0,2.653-10.612,17.908-9.617"/>
		</g>
		<g>
			<path style="fill:#2D1A14;" d="M438.315,452.876c-2.342-1.253-4.365-3.504-5.936-5.745c-1.272,2.307-3.146,4.265-5.452,5.494
				c-3.404,1.815-7.37,2.084-11.07,3.135c-7.22,2.051-13.509,7.295-16.913,14.104h48.862v-16.819
				C444.854,454.562,441.426,454.54,438.315,452.876z"/>
			<path style="fill:#2D1A14;" d="M438.315,452.876c-2.338-1.251-4.36-3.498-5.929-5.735c-1.277,2.303-3.156,4.257-5.458,5.484
				c-3.404,1.815-7.37,2.084-11.07,3.135c-7.22,2.051-13.509,7.295-16.913,14.104h48.862v-16.819
				C444.854,454.562,441.426,454.54,438.315,452.876z"/>
			<path style="fill:#2D1A14;" d="M400.047,472.509h47.569c1.353,0,2.46-1.129,2.46-2.508l0,0c0-1.38-1.107-2.509-2.46-2.509
				h-47.569c-1.353,0-2.46,1.129-2.46,2.509l0,0C397.587,471.38,398.694,472.509,400.047,472.509z"/>
			
				<path style="fill:none;stroke:#B7A091;stroke-width:0.9949;stroke-linecap:round;stroke-linejoin:round;stroke-miterlimit:10;" d="
				M430.179,467.139c0,0,2.653-10.612,17.908-9.617"/>
		</g>
		<path style="fill:#FFF8F3;" d="M486.468,184.859c-2.311,0-4.184-2.555-4.184-5.708h8.368
			C490.652,182.303,488.779,184.859,486.468,184.859z"/>
		<polygon style="fill:#F5E4DD;" points="500.037,204.463 483.932,248.079 475.043,205.976 		"/>
		<path style="fill:#F5E4DD;" d="M478.373,208.317h17.898c2.245,0,4.082-1.837,4.082-4.082l0,0c0-2.245-1.837-4.082-4.082-4.082
			h-17.898c-2.245,0-4.082,1.837-4.082,4.082v0C474.291,206.48,476.128,208.317,478.373,208.317z"/>
		<path style="fill:#B82B12;" d="M512.01,233.731l60.759,61.098l8.339-19.188l-79.518,1.5c-6.352,0.12-11.403,5.366-11.284,11.717
			c0.12,6.352,5.366,11.404,11.717,11.284l79.518-1.5c6.346-0.12,11.394-5.362,11.275-11.708c-0.05-2.663-1.002-5.097-2.559-7.017
			l-0.376-0.463l-54.267-66.931c-5.526-6.815-15.53-7.86-22.345-2.335c-6.815,5.526-7.86,15.53-2.335,22.345
			C511.271,232.949,511.641,233.358,512.01,233.731z"/>
		<path style="fill:#B82B12;" d="M475.845,279.858l-23.161-0.506c1.563,1.805,3.564,3.213,5.515,4.976
			c1.48,1.337-0.412,3.34-1.995,2.586c-4.348-2.071-8.32-4.885-12.779-6.729c-0.527-0.218-3.257,0.399-3.404-0.044l-10.225-1.289
			l37.053-43.155c0.318-0.372,0.637-0.781,0.928-1.197c4.771-6.815,3.868-16.819-2.016-22.345
			c-5.884-5.526-14.522-4.481-19.293,2.335l-46.855,66.931l-0.325,0.463c-1.344,1.92-2.166,4.354-2.209,7.016
			c-0.103,6.347,4.255,11.589,9.734,11.708l68.656,1.5c5.484,0.12,10.014-4.932,10.117-11.284
			C485.69,284.474,481.329,279.227,475.845,279.858z"/>
		<path style="fill:#FF8772;" d="M441.012,301.217c-5.896-0.461-12.249-2.017-15.569-5.195c-0.919-0.879-1.433-2.197-1.738-3.405
			c-0.421-1.669-0.444-3.453,0.004-5.12c0.541-2.016,1.783-3.75,3.437-5.009c2.445-1.862,5.548-2.693,8.551-3.084
			c1.265-0.164,2.539-0.249,3.814-0.278c1.915-0.044,3.573,0.213,5.349,0.924c1.167,0.467,2.335,0.935,3.502,1.402
			c2.876,1.152,5.753,2.304,8.629,3.456c1.284,0.514,2.568,1.029,3.852,1.543c2.264,0.309,2.727-1.944,2.675,4.408
			c-0.052,6.352-2.329,11.403-5.087,11.284l-17.439-0.758C440.998,301.329,441.068,301.221,441.012,301.217z"/>
		<path style="fill:#FF8772;" d="M504.99,284.806l19.861-4.013c11.628,1.235,18.699,10.15,21.882,18.507l-34.867,0.844
			c-4.953,0.12-9.045-4.932-9.138-11.284C502.634,282.508,500.036,284.925,504.99,284.806z"/>
		<path style="fill:#2D1A14;" d="M484.147,168.949c-3.259,0.28-6.567-1.908-7.586-5.016c-0.347-1.058-0.448-2.182-0.482-3.295
			c-0.034-1.12-0.002-2.256,0.308-3.333c0.517-1.796,1.777-3.306,3.256-4.45c1.479-1.143,3.178-1.96,4.864-2.768
			c-0.287,1.063,0.548,2.643,1.087,3.604c1.206,2.145,3.937,2.826,6.381,3.115c2.444,0.289,5.124,0.487,6.906,2.183
			c1.414,1.346,1.955,3.504,1.45,5.39c-0.505,1.886-1.996,3.453-3.815,4.161"/>
		
			<line style="fill:none;stroke:#472A1C;stroke-width:1.2349;stroke-linecap:round;stroke-linejoin:round;stroke-miterlimit:10;" x1="475.32" y1="328.982" x2="436.341" y2="345.962"/>
		<g>
			<g>
				<path style="fill:#FF8772;" d="M481.817,289.889c0.166,2.223,11.379,2.048,11.379,2.048s-17.01,13.984-15.31,16.347
					c0.069,0.095,0.161,0.161,0.264,0.213c0.739-0.143,1.48-0.272,2.223-0.382c4.221-1.917,11.957-8.785,11.957-8.785
					s-2.49,2.501-5.06,5.494c2.534-0.883,5.184-1.348,7.887-1.529c0.32-0.392,0.501-0.62,0.501-0.62s-0.171,0.227-0.456,0.617
					c3.93-0.258,7.968,0.077,11.918,0.573c4.26-5.483,10.301-13.928,10.301-13.928l-6.7-5.793
					C510.719,284.145,481.537,286.138,481.817,289.889z"/>
			</g>
			<path style="fill:#FF8772;" d="M493.834,307.242c0.11,1.586,1.64,2.818,3.252,3.056c1.612,0.239,3.25-0.322,4.686-1.089
				c3.212-1.718,5.791-4.545,7.161-7.855c0.928-2.24,1.181-5.108-0.59-6.776c-1.496-1.41-3.854-1.421-5.927-1.142
				c-4.938,0.664-14.255,3.054-16.443,8.149C484.095,305.959,490.775,312.18,493.834,307.242z"/>
		</g>
		<g>
			<g>
				<path style="fill:#FF8772;" d="M480.009,291.12c-0.166,2.223-11.379,2.048-11.379,2.048s17.01,13.984,15.31,16.347
					c-0.069,0.095-0.161,0.161-0.264,0.213c-0.739-0.143-1.48-0.272-2.223-0.382c-4.221-1.917-11.957-8.785-11.957-8.785
					s2.49,2.501,5.061,5.494c-2.535-0.883-5.184-1.348-7.887-1.529c-0.32-0.392-0.501-0.62-0.501-0.62s0.171,0.227,0.456,0.617
					c-3.93-0.258-7.968,0.077-11.918,0.573c-4.26-5.484-10.301-13.928-10.301-13.928l8.65-6.535
					C453.056,284.634,480.288,287.369,480.009,291.12z"/>
			</g>
			<path style="fill:#FF8772;" d="M467.991,308.473c-0.11,1.586-1.64,2.818-3.252,3.056c-1.612,0.239-3.25-0.322-4.686-1.089
				c-3.212-1.718-5.791-4.545-7.161-7.855c-0.928-2.24-1.181-5.108,0.59-6.776c1.496-1.41,3.854-1.421,5.927-1.142
				c4.938,0.664,14.255,3.054,16.443,8.149C477.73,307.191,471.05,313.411,467.991,308.473z"/>
		</g>
	</g>
	<g>
		<g>
			<path style="fill:#898429;" d="M71.988,195.012c-5.448,2.22-9.936,6.78-10.789,12.777c-0.834,5.865,1.208,11.795,4.106,16.94
				c3.497-2.292,6.87-5.15,10.367-7.442c-2.445,4.153-4.89,8.306-7.334,12.459c3.073,9.572,8.932,18.54,16.449,25.133
				c4.162-0.135,8.593-0.635,12.474-2.166c-2.401,2.067-4.801,4.133-7.203,6.201c-0.745,0.656,12.872,12.266,13.824,13.04
				c3.686,2.996,7.07,6.566,11.211,8.93c14.352,8.193,15.811-9.176,13.619-19.21c-2.182-9.987-5.773-19.656-10.633-28.624
				c-0.488,3.436-1.571,6.786-3.185,9.851c0.495-6.383-0.838-11.699-0.691-18.099c-4.14-5.045-8.755-11.354-12.173-16.924
				c-4.461,0.89-8.986,1.443-13.527,1.653c3.582-1.947,7.459-3.337,11.453-4.107c-3.518-5.247-9.961-9.662-16.014-11.321
				C80.099,193.049,75.808,193.456,71.988,195.012z"/>
			<path style="fill:none;stroke:#211D1D;stroke-width:0.69;stroke-linecap:round;stroke-linejoin:round;stroke-miterlimit:10;" d="
				M75.037,203.529c0,0,60.042,78.232,67.464,127.714"/>
			
				<line style="fill:none;stroke:#211D1D;stroke-width:0.69;stroke-linecap:round;stroke-linejoin:round;stroke-miterlimit:10;" x1="83.941" y1="194.102" x2="91.505" y2="226.366"/>
			
				<line style="fill:none;stroke:#211D1D;stroke-width:0.69;stroke-linecap:round;stroke-linejoin:round;stroke-miterlimit:10;" x1="72.97" y1="240.265" x2="95.904" y2="233.331"/>
		</g>
		<g>
			<path style="fill:#898429;" d="M23.843,247.359c-3.523,3.597-5.458,8.669-4.009,13.593c1.417,4.816,5.131,8.689,9.245,11.659
				c1.954-2.978,3.61-6.35,5.564-9.329c-0.463,4.051-0.926,8.103-1.389,12.154c5.819,6.327,13.628,11.227,21.907,13.718
				c3.244-1.543,6.571-3.46,9.098-5.983c-1.167,2.425-2.334,4.85-3.502,7.277c-0.357,0.763,14.523,5.021,15.55,5.29
				c3.976,1.039,7.916,2.626,12.028,3.02c14.251,1.365,9.256-12.548,3.969-19.538c-5.261-6.956-11.525-13.18-18.543-18.424
				c0.83,2.822,1.16,5.782,0.969,8.706c-1.868-5.099-4.805-8.743-6.954-13.735c-5.061-2.464-10.944-5.74-15.619-8.859
				c-3.213,2.229-6.596,4.22-10.113,5.952c2.144-2.741,4.718-5.155,7.604-7.129c-4.64-2.835-11.299-4.017-16.673-3.206
				C29.562,243.04,26.312,244.837,23.843,247.359z"/>
			
				<path style="fill:none;stroke:#211D1D;stroke-width:0.5907;stroke-linecap:round;stroke-linejoin:round;stroke-miterlimit:10;" d="
				M29.269,252.881c0,0,84.38,45.34,104.39,73.555"/>
			
				<line style="fill:none;stroke:#211D1D;stroke-width:0.5907;stroke-linecap:round;stroke-linejoin:round;stroke-miterlimit:10;" x1="32.974" y1="242.525" x2="46.948" y2="262.874"/>
			
				<line style="fill:none;stroke:#211D1D;stroke-width:0.5907;stroke-linecap:round;stroke-linejoin:round;stroke-miterlimit:10;" x1="40.641" y1="281.957" x2="53.119" y2="266.239"/>
		</g>
		<g>
			<path style="fill:#A8A539;" d="M183.415,166.371c8.443,0.428,16.693,4.484,20.694,12.214c3.913,7.559,3.956,16.572,2.464,24.925
				c-5.831-1.451-11.76-3.727-17.591-5.178c5.286,4.474,10.571,8.948,15.857,13.421c0.371,14.44-3.323,29.384-10.392,41.89
				c-5.71,1.791-11.956,3.214-17.946,2.978c4.236,1.664,8.473,3.329,12.711,4.994c1.321,0.536-11.642,22.742-12.566,24.243
				c-3.579,5.812-6.476,12.259-10.971,17.429c-15.582,17.919-25.796-4.947-27.582-19.598c-1.777-14.581-1.491-29.399,0.847-43.866
				c2.292,4.429,5.349,8.458,8.992,11.851c-3.699-8.422-4.412-16.266-7.647-24.877c3.223-8.806,6.49-19.551,8.485-28.729
				c6.472-0.908,12.873-2.304,19.132-4.173c-5.782-0.942-11.7-0.99-17.482-0.139c2.283-8.785,8.929-17.829,16.352-22.95
				C171.483,167.555,177.497,166.071,183.415,166.371z"/>
			
				<path style="fill:none;stroke:#211D1D;stroke-width:0.7835;stroke-linecap:round;stroke-linejoin:round;stroke-miterlimit:10;" d="
				M185.966,177.516c0,0-37.069,85.402-33.255,154.301"/>
			
				<line style="fill:none;stroke:#211D1D;stroke-width:0.7835;stroke-linecap:round;stroke-linejoin:round;stroke-miterlimit:10;" x1="147.154" y1="207.815" x2="163.877" y2="243.681"/>
			
				<line style="fill:none;stroke:#211D1D;stroke-width:0.7835;stroke-linecap:round;stroke-linejoin:round;stroke-miterlimit:10;" x1="144.379" y1="214.902" x2="161.641" y2="251.497"/>
		</g>
		<path style="fill:#2D1A14;" d="M101.676,323.969v76.611c0,22.229,18.188,40.417,40.417,40.417h0
			c22.229,0,40.417-18.188,40.417-40.417v-76.611H101.676z"/>
		<g>
			
				<path style="fill:none;stroke:#2D1A14;stroke-width:1.0131;stroke-linecap:round;stroke-linejoin:round;stroke-miterlimit:10;" d="
				M122.392,467.584v-32.881V467.584z"/>
			
				<line style="fill:none;stroke:#2D1A14;stroke-width:1.0131;stroke-linecap:round;stroke-linejoin:round;stroke-miterlimit:10;" x1="138.337" y1="435.144" x2="122.392" y2="467.584"/>
		</g>
		<g>
			
				<path style="fill:none;stroke:#2D1A14;stroke-width:1.0131;stroke-linecap:round;stroke-linejoin:round;stroke-miterlimit:10;" d="
				M165.733,463.528v-32.881V463.528z"/>
			
				<line style="fill:none;stroke:#2D1A14;stroke-width:1.0131;stroke-linecap:round;stroke-linejoin:round;stroke-miterlimit:10;" x1="149.788" y1="431.088" x2="165.733" y2="463.528"/>
		</g>
		
			<line style="fill:none;stroke:#FFF8F3;stroke-width:0.9563;stroke-linecap:round;stroke-miterlimit:10;" x1="102.502" y1="333.767" x2="181.678" y2="333.767"/>
	</g>
	<g>
		<g>
			<path style="fill:#2D1A14;" d="M246.84,179.525c1.021,0.778,2.558,0.508,3.671,1.099c-0.426-0.117-1.086-0.023-1.291-0.34
				c0.725,2.398,3.647,3.453,6.141,3.221c2.494-0.232,4.814-1.367,7.272-1.851c3.564-0.701,7.468,0.081,10.27,2.393
				c1.291,1.066,2.305,2.467,2.949,4.013c10.176-9.104,23.478-10.876,29.936-3.894c4.756,5.141,4.489,13.613,0.081,21.491
				c6.494-0.881,12.437,0.662,16.312,4.851c7.813,8.446,4.262,24.436-7.931,35.714c-12.193,11.278-28.41,13.574-36.222,5.128
				c-4.641-5.017-5.271-12.695-2.464-20.467H246.84V179.525z"/>
			<path style="fill:#2D1A14;" d="M250.511,180.624c0.136,0.038,0.249,0.096,0.315,0.197
				C250.725,180.745,250.619,180.682,250.511,180.624z"/>
		</g>
		
			<polyline style="fill:none;stroke:#211D1D;stroke-width:1.0531;stroke-linecap:round;stroke-linejoin:round;stroke-miterlimit:10;" points="
			334.665,472.383 319.05,373.388 260.873,373.093 243.285,468.444 		"/>
		<path style="fill:#B82B12;" d="M265.526,368.366h71.788c5.946,0,10.811-5.605,10.811-12.457l0,0
			c0-6.851-4.865-12.457-10.811-12.457h-71.788c-5.946,0-10.811,5.605-10.811,12.457l0,0
			C254.714,362.761,259.58,368.366,265.526,368.366z"/>
		<path style="fill:#A83500;" d="M277.196,243.093l50.631,21.654l1.553,0.664c3.972,1.699,8.52,0.135,10.657-3.49l39.76-67.286
			c0.791-1.339,0.347-3.065-0.991-3.856c-1.198-0.708-2.707-0.426-3.578,0.601l-50.593,59.57l12.21-2.826l-45.758-30.636
			c-6.713-4.494-15.798-2.696-20.293,4.017c-4.494,6.713-2.696,15.798,4.017,20.293
			C275.555,242.297,276.403,242.748,277.196,243.093z"/>
		<path style="fill:#FFC95C;" d="M270.793,221.506c4.494-6.713,13.58-8.511,20.293-4.017l39.505,26.449l27.031-31.827
			c1.72,3.363,3.907,6.396,6.445,9.146l-24.029,40.664c-2.137,3.626-6.685,5.189-10.657,3.49l-1.553-0.664l-50.631-21.654
			c-0.793-0.345-1.642-0.796-2.386-1.294C268.098,237.305,266.299,228.219,270.793,221.506z"/>
		<g>
			<path style="fill:#2D1A14;" d="M248.118,176.232c-0.694,0.529-1.625,0.574-2.5,0.734c-0.073,0.083-0.157,0.155-0.235,0.232
				c0.154-0.037,0.283-0.096,0.355-0.207c-0.725,2.398-3.647,3.453-6.141,3.221c-2.494-0.232-4.814-1.367-7.272-1.851
				c-3.564-0.701-7.468,0.081-10.27,2.393c-1.291,1.066-2.305,2.467-2.949,4.013c-10.176-9.104-23.478-10.876-29.936-3.894
				c-4.756,5.141-4.489,13.614-0.081,21.492c-6.494-0.882-12.437,0.662-16.312,4.851c-7.813,8.446-4.262,24.435,7.931,35.714
				c12.193,11.278,28.41,13.574,36.222,5.128c4.641-5.017,5.271-12.695,2.464-20.467h28.725V176.232z"/>
		</g>
		<g>
			<path style="fill:#2D1A14;" d="M389.577,479.864l-45.954-4.293l-5.433-0.506l-7.339-0.687l-1.317-18.075l-0.906-12.423
				l15.062,0.778c-0.461,4.409,1.436,9.097,4.742,12.423c0.259,0.259,0.527,0.515,0.803,0.757c0.276,0.243,0.56,0.473,0.852,0.7
				c0.733,0.56,1.511,1.054,2.33,1.478c0.362,0.185,0.725,0.358,1.095,0.519c0.123,0.053,0.247,0.103,0.37,0.152
				c0.124,0.053,0.247,0.103,0.37,0.148c0.23,0.09,0.461,0.173,0.692,0.255c0.272,0.095,0.543,0.185,0.819,0.268
				c0.107,0.037,0.218,0.07,0.329,0.099c0.144,0.049,0.292,0.091,0.44,0.128c0.119,0.037,0.239,0.07,0.358,0.099
				c0.14,0.041,0.28,0.078,0.424,0.115c0.127,0.033,0.251,0.066,0.379,0.095c0.473,0.119,0.947,0.23,1.42,0.337
				c0.078,0.021,0.156,0.037,0.235,0.053c1.803,0.403,3.618,0.762,5.388,1.272C372.77,465.869,385.428,472.652,389.577,479.864z"/>
			<path style="fill:#A83500;" d="M359.347,462.283c-6.743,2.811-11.867,7.529-15.724,13.287l-5.433-0.506
				c-0.947-6.928-3.585-13.394-8.657-18.762c-0.062-0.07-0.123-0.136-0.189-0.202l-0.716-12.221l15.062,0.778
				c-0.461,4.409,1.436,9.097,4.742,12.423c0.259,0.263,0.527,0.515,0.803,0.757c0.276,0.243,0.56,0.478,0.852,0.7
				c0.733,0.56,1.511,1.058,2.33,1.482c0.362,0.185,0.725,0.354,1.095,0.515c0.123,0.053,0.247,0.107,0.37,0.152
				c0.124,0.053,0.247,0.103,0.37,0.148c0.23,0.09,0.461,0.173,0.692,0.255c0.272,0.095,0.543,0.185,0.819,0.268
				c0.107,0.037,0.218,0.07,0.329,0.099c0.144,0.049,0.292,0.091,0.44,0.128c0.119,0.037,0.239,0.07,0.358,0.099
				c0.14,0.041,0.28,0.078,0.424,0.115c0.123,0.033,0.251,0.066,0.379,0.095c0.469,0.124,0.943,0.23,1.42,0.337
				C359.191,462.25,359.269,462.267,359.347,462.283z"/>
		</g>
		<g>
			<path style="fill:#2D1A14;" d="M387.176,369.328c3.464,4.465,10.198,6.479,15.962,4.776c3.907-1.155,7.121-3.744,10.7-5.62
				c6.983-3.662,15.573-4.521,23.101-2.309l-37.193,34.134l-23.337-21.69L387.176,369.328z"/>
			<path style="fill:#A83500;" d="M387.176,369.328c3.464,4.465,10.198,6.479,15.962,4.776c3.907-1.155,7.121-3.744,10.7-5.62
				c0.618-0.324,1.253-0.618,1.895-0.898c-1.575,4.298-2.347,8.941-2.65,13.462c-0.157,2.348-0.192,4.73-0.107,7.118l-3.946,3.621
				c-6.599-3.222-14.055-3.328-21.35-2.694l-11.271-10.475L387.176,369.328z"/>
		</g>
		<path style="fill:#AE4E3E;" d="M268.933,273.383c2.11,23.757,6.042,47.383,11.757,70.655h-74.234
			c-3.34-12.25-0.373-26.653,6.815-37.487c3.973-5.988,9.333-11.147,13.468-17.045c4.135-5.899,7.054-13.001,5.332-19.798
			L268.933,273.383z"/>
		<path style="fill:#2D1A14;" d="M213.272,306.551c3.973-5.988,9.333-11.147,13.468-17.045c0.246-0.351,0.488-0.707,0.724-1.066
			c4.167,0.045,8.334,0.054,12.502,0.018c1.8-0.016,3.6-0.04,5.4-0.073h25.145c2.27,18.698,5.669,37.285,10.179,55.652h-74.234
			C203.116,331.788,206.084,317.385,213.272,306.551z"/>
		<path style="fill:#FFC95C;" d="M286.658,216.15H222.16c-3.214,5.625-4.292,12.372-2.335,19.504
			c2.533,9.228,6.927,17.647,7.764,27.294c0.551,6.347-0.434,12.84,0.591,19.164c2.163,13.352,11.243,17.474,24.192,17.932
			c11.085,0.392,21.167-1.582,27.138-11.997c5.767-10.059,3.868-21.64,6.766-32.457c2.313-8.634,4.424-17.21,4.017-26.349
			C290.068,224.197,288.765,219.842,286.658,216.15z"/>
		<path style="fill:#A83500;" d="M239.058,188.953c0.136,2.154,1.992,3.789,4.145,3.654c2.154-0.136,3.789-1.992,3.653-4.145
			c-0.136-2.154-1.992-3.789-4.145-3.654C240.558,184.943,238.922,186.799,239.058,188.953z"/>
		<g>
			<path style="fill:#2D1A14;" d="M325.088,452.971c9.345-0.664,18.621-3.953,27.991-4.116l-17.537-106.337
				c-1.135-6.712-6.948-11.625-13.756-11.625h-99.006c-7.705,0-13.951,6.246-13.951,13.951c0,7.705,6.246,13.951,13.951,13.951
				h87.215L325.088,452.971z"/>
		</g>
		<g>
			<path style="fill:#2D1A14;" d="M393.575,362.255l-75.519-55.051c-3.71-2.704-8.555-3.575-13.05-2.348l-89.036,24.3
				c-7.813,2.132-12.322,9.863-10.072,17.267c2.25,7.404,10.409,11.679,18.22,9.545l81.885-22.348l68.615,50.018
				C381.102,376.658,387.09,369.243,393.575,362.255z"/>
		</g>
		<path style="fill:#A83500;" d="M206.386,228.12l-10.146,53.978l-0.303,1.612c-0.836,4.447,1.947,8.745,6.249,9.894l71.566,18.916
			c1.902,0.503,3.851-0.632,4.353-2.533c0.453-1.715-0.426-3.469-1.998-4.165l-67.658-30.032l5.945,11.506l19.956-51.169
			c2.931-7.516-0.785-15.985-8.301-18.916c-7.516-2.931-15.985,0.785-18.916,8.301C206.808,226.346,206.552,227.271,206.386,228.12z
			"/>
		<path style="fill:#FFC95C;" d="M195.937,283.71l0.303-1.612l10.146-53.978c0.165-0.849,0.422-1.775,0.747-2.609
			c2.931-7.516,11.4-11.232,18.916-8.301c7.516,2.931,11.232,11.4,8.301,18.916l-17.008,43.611l22.76,10.103
			c-2.796,3.697-4.818,7.77-6.117,12.17l-31.799-8.405C197.884,292.455,195.101,288.157,195.937,283.71z"/>
		<g>
			<g>
				<path style="fill:#A83500;" d="M291.667,305.967c0.117,1.616-7.99,2.679-7.99,2.679s13.755,8.255,12.78,10.135
					c-0.039,0.076-0.099,0.133-0.168,0.181c-0.548-0.025-1.096-0.039-1.644-0.039c-3.248-0.931-9.558-5.051-9.558-5.051
					s2.062,1.535,4.234,3.415c-1.922-0.367-3.883-0.42-5.851-0.264c-0.272-0.248-0.427-0.393-0.427-0.393s0.147,0.145,0.395,0.395
					c-2.862,0.231-5.739,0.9-8.535,1.675c-3.655-3.492-8.91-8.926-8.91-8.926l8.16-4.977
					C274.153,304.798,291.469,303.239,291.667,305.967z"/>
			</g>
			<path style="fill:#A83500;" d="M284.843,319.721c0.089,1.153-0.883,2.2-2.021,2.543c-1.138,0.342-2.378,0.113-3.496-0.287
				c-2.499-0.895-4.66-2.655-6-4.891c-0.908-1.513-1.395-3.548-0.295-4.936c0.929-1.173,2.629-1.431,4.153-1.45
				c3.632-0.046,10.606,0.686,12.726,4.118C291.731,317.767,287.574,322.948,284.843,319.721z"/>
		</g>
		<g>
			<g>
				<path style="fill:#A83500;" d="M370.281,179.901c1.496-0.157,2.727,7.31,2.727,7.31s7.243-12.975,9.016-12.13
					c0.071,0.034,0.126,0.088,0.173,0.15c-0.006,0.508-0.003,1.015,0.013,1.522c-0.766,3.033-4.397,8.995-4.397,8.995
					s1.362-1.954,3.04-4.02c-0.282,1.789-0.273,3.605-0.068,5.421c-0.222,0.259-0.351,0.407-0.351,0.407s0.13-0.141,0.355-0.377
					c0.301,2.64,1.008,5.282,1.812,7.845c-3.13,3.487-8.011,8.513-8.011,8.513l-4.651-3.753
					C369.938,199.782,367.756,180.166,370.281,179.901z"/>
			</g>
			<path style="fill:#A83500;" d="M383.247,185.796c1.067-0.117,2.068,0.75,2.42,1.792c0.352,1.042,0.177,2.197-0.16,3.243
				c-0.755,2.339-2.323,4.391-4.356,5.699c-1.376,0.885-3.25,1.398-4.57,0.422c-1.116-0.824-1.407-2.389-1.47-3.798
				c-0.152-3.359,0.316-9.832,3.436-11.897C381.226,179.483,386.158,183.172,383.247,185.796z"/>
		</g>
		<path style="fill:none;stroke:#F5F5F3;stroke-width:0.9407;stroke-miterlimit:10;" d="M286.994,325.058
			c5.338-1.687,10.982-3.098,16.626-4.509c0.47,0,1.411,0.47,2.352,0.941c7.996,6.115,15.522,11.288,23.518,16.933
			c11.288,8.466,21.636,15.992,32.924,24.458c3.763,2.822,7.526,5.174,11.288,7.526"/>
		<path style="fill:none;stroke:#F5F5F3;stroke-width:0.9407;stroke-miterlimit:10;" d="M226.602,340.968
			c10.008-2.488,19.829-5.782,29.941-7.805"/>
		<path style="fill:#B82B12;" d="M272.372,368.813c5.131-21.746-7.081-44.932-25.288-57.884s-41.224-17.252-63.552-18.086
			l23.52,75.924L272.372,368.813z"/>
		<path style="fill:#914B29;" d="M241.693,312.613h46.176h220.234c3.186,0,5.793-2.082,5.793-4.627l0,0
			c0-2.545-2.607-4.627-5.793-4.627H241.693c-3.186,0-5.793,2.082-5.793,4.627l0,0C235.9,310.53,238.507,312.613,241.693,312.613z"
			/>
		<path style="fill:#A83500;" d="M261.7,212.663c-3.121-3.796-4.74-9.294-4.835-14.389l-10.124-5.59
			c2.333,8.781-1.111,19.7-6.69,22.987c0.466,0.61,0.988,1.173,1.553,1.697c3.487,3.241,8.631,4.818,13.168,4.692
			c4.297-0.113,8.723-1.65,11.915-4.692c0.374-0.359,0.733-0.739,1.073-1.138C265.48,215.742,263.386,214.713,261.7,212.663z"/>
		<path style="fill:#2D1A14;" d="M251.162,197.342c0.683,2.999,3.329,5.286,6.212,5.599c-0.368-1.869-0.54-3.768-0.506-5.599
			H251.162z"/>
		<path style="fill:#A83500;" d="M259.297,199.22c-0.914,0.366-1.902,0.597-2.931,0.663c-0.733,0.045-1.453,0.008-2.153-0.111
			c-0.704-0.115-1.383-0.309-2.029-0.568c-3.314-1.346-5.759-4.499-5.997-8.29l-0.325-5.125l-0.551-8.76
			c-0.165-2.634,0.762-5.096,2.387-6.94c1.626-1.844,3.956-3.075,6.586-3.24c4.631-0.292,8.739,2.795,9.879,7.13
			c0.161,0.589,0.263,1.21,0.301,1.844l0.729,11.517l0.148,2.363C265.607,193.938,263.046,197.725,259.297,199.22z"/>
		
			<line style="fill:none;stroke:#472A1C;stroke-width:0.4116;stroke-linecap:round;stroke-linejoin:round;stroke-miterlimit:10;" x1="234.351" y1="236.126" x2="227.195" y2="254.856"/>
		
			<line style="fill:none;stroke:#472A1C;stroke-width:0.4116;stroke-linecap:round;stroke-linejoin:round;stroke-miterlimit:10;" x1="290.293" y1="229.241" x2="287.507" y2="248.017"/>
		<path style="fill:none;stroke:#FFFFFF;stroke-width:0.4776;stroke-miterlimit:10;" d="M245.145,199.572
			c0,3.955-0.902,7.162-2.015,7.162c-1.113,0-2.015-3.206-2.015-7.162c0-3.955,0.902-7.162,2.015-7.162
			C244.243,192.41,245.145,195.616,245.145,199.572z"/>
		<path style="fill:none;stroke:#FFFFFF;stroke-width:0.4912;stroke-miterlimit:10;" d="M267.784,198.748
			c0,4.182-0.902,7.573-2.015,7.573c-1.113,0-2.015-3.391-2.015-7.573c0-4.183,0.902-7.573,2.015-7.573
			C266.883,191.175,267.784,194.566,267.784,198.748z"/>
		
			<polyline style="fill:none;stroke:#211D1D;stroke-width:1.0433;stroke-linecap:round;stroke-linejoin:round;stroke-miterlimit:10;" points="
			282.538,471.273 266.896,374.129 208.72,373.854 191.157,467.431 		"/>
		<path style="fill:#2D1A14;" d="M313.904,374.403H201.229c-1.465,0-2.663-1.198-2.663-2.663v-0.754
			c0-1.465,1.198-2.663,2.663-2.663h112.675c1.464,0,2.663,1.198,2.663,2.663v0.754
			C316.566,373.205,315.368,374.403,313.904,374.403z"/>
		<path style="fill:#FCEFEB;" d="M253.724,188.484v0.96c0,2.188,1.791,3.979,3.979,3.979c2.189,0,3.979-1.791,3.979-3.979v-0.96
			H253.724z"/>
		<path style="fill:#2D1A14;" d="M265.191,187.34c-1.486-0.066-2.947-0.609-4.083-1.56c-1.56-1.301-2.198-3.05-2.124-5.051
			c-0.239,2.914-2.252,5.631-4.989,6.677c-2.721,1.041-6.01,0.37-8.134-1.618l-0.551-8.76c-0.165-2.634,0.762-5.096,2.387-6.94
			c1.626-1.844,3.956-3.075,6.586-3.24c4.631-0.292,8.739,2.795,9.879,7.13c0.161,0.589,0.263,1.21,0.301,1.844L265.191,187.34z"/>
	</g>
	<path style="fill:#2D1A14;" d="M274.659,268.169c-0.322,1.678-0.5,3.402-0.5,5.166c0,16.302,14.372,29.518,32.1,29.518
		c17.729,0,32.1-13.216,32.1-29.518c0-1.763-0.178-3.487-0.5-5.166H274.659z"/>
	<g>
		<path style="fill:#867FDB;" d="M381.507,247.742c2.849-3.335,4.946-6.695,7.795-10.029h-6.306h-24.133h-6.306
			c2.849,3.335,4.946,6.695,7.795,10.029c-4.25,3.482-6.002,8.532-6.829,13.963c-0.827,5.431-0.715,10.973-0.203,16.443v27.491
			h11.658h11.906h11.658v-27.491c0.512-5.47,0.624-11.012-0.203-16.443C387.509,256.274,385.757,251.223,381.507,247.742z"/>
		<g>
			<path style="fill:#867FDB;" d="M385.243,272.544c-2.257,0-4.517-0.32-6.697-0.979c-0.883-0.267-1.382-1.199-1.115-2.082
				c0.267-0.883,1.199-1.382,2.081-1.115c6.781,2.052,14.782,0.145,19.909-4.744c2.609-2.488,4.287-5.503,4.725-8.489
				c0.476-3.247-0.621-6.595-2.795-8.527c-3.469-3.083-8.831-2.419-12.343-0.5c-4.184,2.287-7.186,6.315-9.807,10.327
				c-0.505,0.771-1.539,0.988-2.311,0.484c-0.772-0.505-0.989-1.539-0.484-2.311c2.859-4.376,6.171-8.79,11.001-11.43
				c5.508-3.011,12.154-2.628,16.162,0.934c3.039,2.7,4.526,7.11,3.881,11.507c-0.545,3.721-2.578,7.421-5.724,10.42
				C397.311,270.25,391.287,272.544,385.243,272.544z"/>
		</g>
	</g>
	<g>
		<path style="fill:#5B1B16;" d="M500.184,297.529h-32.318c-5.769,0-10.489-4.72-10.489-10.489l0,0
			c0-5.769,4.72-10.489,10.489-10.489h32.318c5.769,0,10.489,4.72,10.489,10.489l0,0
			C510.673,292.809,505.953,297.529,500.184,297.529z"/>
		<path style="fill:#2D1A14;" d="M461.175,290.684c2.192-0.618,3.324-1.635,5.008-3.037c2.741-2.284,6.053-0.063,8.892,0.9
			c3.078,1.044,7.149,0.15,9.366-2.313c2.271-2.523,2.193-6.004,1.335-9.088c-0.059-0.211-0.074-0.407-0.072-0.596h-17.837
			c-5.769,0-10.489,4.72-10.489,10.489c0,1.497,0.323,2.92,0.895,4.212C459.256,291.144,460.232,290.95,461.175,290.684z"/>
		<path style="fill:#D6874C;" d="M505.336,277.684c-1.504-9.95-10.091-17.576-20.461-17.576c-10.369,0-18.957,7.627-20.461,17.576
			H505.336z"/>
		<path style="fill:#9E9520;" d="M506.912,276.257c0.137,1.239,0.272,2.525-0.035,3.718c-0.307,1.193-1.189,2.267-2.219,2.217
			c-1.312-0.063-2.255-1.817-3.567-1.864c-1.119-0.04-1.961,1.146-2.886,1.91c-1.844,1.522-4.524,1.338-6.214-0.428
			c-1.004-1.048-1.77-2.634-3.071-2.935c-0.853-0.197-1.728,0.24-2.439,0.845c-0.711,0.606-1.314,1.381-2.019,1.996
			c-2.095,1.83-5.124,2.011-7.279,0.289c-1.058-0.845-1.872-2.07-2.878-3.003c-1.006-0.933-2.363-1.57-3.535-0.987
			c-0.877,0.436-1.453,1.45-2.212,2.137c-1.222,1.106-2.968,1.286-4.326,0.446c-1.358-0.84-1.909-2.961-1.888-4.81h39.223
			L506.912,276.257z"/>
		
			<path style="fill:none;stroke:#472A1C;stroke-width:0.5413;stroke-linecap:round;stroke-linejoin:round;stroke-miterlimit:10;" d="
			M479.348,272.014c0,0.626-0.508,1.134-1.134,1.134c-0.626,0-1.134-0.508-1.134-1.134c0-0.626,0.508-1.134,1.134-1.134
			C478.84,270.88,479.348,271.388,479.348,272.014z"/>
		
			<path style="fill:none;stroke:#472A1C;stroke-width:0.5413;stroke-linecap:round;stroke-linejoin:round;stroke-miterlimit:10;" d="
			M482.182,265.99c0,0.665-0.539,1.205-1.205,1.205s-1.205-0.539-1.205-1.205s0.539-1.205,1.205-1.205
			S482.182,265.325,482.182,265.99z"/>
		
			<path style="fill:none;stroke:#472A1C;stroke-width:0.5413;stroke-linecap:round;stroke-linejoin:round;stroke-miterlimit:10;" d="
			M489.27,269.959c0,0.509-0.413,0.921-0.921,0.921c-0.509,0-0.921-0.413-0.921-0.921c0-0.509,0.412-0.921,0.921-0.921
			C488.857,269.038,489.27,269.45,489.27,269.959z"/>
		
			<path style="fill:none;stroke:#472A1C;stroke-width:0.5413;stroke-linecap:round;stroke-linejoin:round;stroke-miterlimit:10;" d="
			M489.128,264.715c0,0.509-0.413,0.921-0.921,0.921c-0.509,0-0.921-0.412-0.921-0.921c0-0.509,0.413-0.921,0.921-0.921
			C488.715,263.793,489.128,264.206,489.128,264.715z"/>
		
			<circle style="fill:none;stroke:#472A1C;stroke-width:0.5413;stroke-linecap:round;stroke-linejoin:round;stroke-miterlimit:10;" cx="496.073" cy="269.605" r="0.992"/>
		
			<path style="fill:none;stroke:#472A1C;stroke-width:0.5413;stroke-linecap:round;stroke-linejoin:round;stroke-miterlimit:10;" d="
			M493.522,266.132c0,0.352-0.286,0.638-0.638,0.638s-0.638-0.286-0.638-0.638c0-0.352,0.285-0.638,0.638-0.638
			S493.522,265.78,493.522,266.132z"/>
		
			<path style="fill:none;stroke:#472A1C;stroke-width:0.5413;stroke-linecap:round;stroke-linejoin:round;stroke-miterlimit:10;" d="
			M473.536,267.691c0,0.352-0.286,0.638-0.638,0.638s-0.638-0.286-0.638-0.638c0-0.352,0.286-0.638,0.638-0.638
			S473.536,267.339,473.536,267.691z"/>
		<path style="fill:#D6874C;" d="M465.07,297.103c-0.207,0.479-0.322,1.006-0.322,1.559c0,2.183,1.786,3.969,3.969,3.969h32.318
			c2.183,0,3.969-1.786,3.969-3.969c0-0.553-0.115-1.08-0.322-1.559H465.07z"/>
	</g>
	<path style="fill:#2D1A14;" d="M517.441,309.229h-69.977c-1.962,0-3.567-1.605-3.567-3.568l0,0c0-1.962,1.605-3.568,3.567-3.568
		h69.977c1.962,0,3.568,1.605,3.568,3.568l0,0C521.009,307.624,519.404,309.229,517.441,309.229z"/>
	<path style="fill:none;stroke:#F5F5F3;stroke-width:0.9407;stroke-miterlimit:10;" d="M278.786,271.908
		c-0.053,0.181-0.089,0.364-0.089,0.549c0,3.941,12.348,7.135,27.579,7.135s27.579-3.194,27.579-7.135
		c0-0.185-0.036-0.368-0.089-0.549H278.786z"/>
	<g>
		<g>
			<path style="fill:#F5E4DD;" d="M262.782,281.512v18.132c0,2.117-1.717,3.834-3.834,3.834h-12.705
				c-2.117,0-3.834-1.717-3.834-3.834v-18.132H262.782z"/>
		</g>
		<g>
			
				<path style="fill:none;stroke:#472A1C;stroke-width:0.5164;stroke-linecap:round;stroke-linejoin:round;stroke-miterlimit:10;" d="
				M238.636,260.091h27.919v11.13l-3.773,3.018v25.405c0,2.117-1.716,3.834-3.834,3.834h-12.705c-2.117,0-3.834-1.717-3.834-3.834
				v-25.405l-3.773-1.886V260.091z"/>
			<path style="fill:#FFEED2;" d="M233.445,267.356c-4.391-3.923-4.982-10.814-1.292-15.491c3.69-4.677,10.275-5.383,14.798-1.627
				L233.445,267.356z"/>
			
				<polyline style="fill:none;stroke:#472A1C;stroke-width:0.3081;stroke-linecap:round;stroke-linejoin:round;stroke-miterlimit:10;" points="
				238.272,248.466 239.95,259.276 232.153,251.866 			"/>
		</g>
	</g>
	<g>
		<g>
			<path style="fill:#D6874C;" d="M351.171,190.883c-0.511,0.203-1.03,0.379-1.564,0.516c0.351,1.122,0.583,2.037-0.088,3.077
				c-0.711,1.102-1.711,1.218-2.976,1.364c-1.352,0.156-3.036,0.351-4.169,2.107c-1.133,1.755-0.621,3.374-0.21,4.676
				c0.385,1.217,0.688,2.179-0.022,3.28c-0.711,1.101-1.71,1.217-2.975,1.363c-1.352,0.156-3.035,0.351-4.169,2.106
				c-1.133,1.755-0.621,3.375-0.21,4.676c0.385,1.217,0.688,2.178-0.022,3.279c-0.711,1.101-1.709,1.215-2.974,1.361
				c-1.352,0.156-3.035,0.35-4.168,2.104c-1.133,1.755-0.621,3.375-0.21,4.676c0.384,1.217,0.688,2.179-0.022,3.28
				c-0.711,1.101-1.71,1.216-2.975,1.362c-1.352,0.156-3.035,0.35-4.168,2.105c-1.133,1.755-0.621,3.374-0.21,4.676
				c0.384,1.217,0.688,2.179-0.022,3.279c-0.711,1.101-1.71,1.216-2.974,1.362c-1.352,0.156-3.035,0.35-4.168,2.105
				c-1.133,1.755-0.621,3.374-0.21,4.676c0.385,1.217,0.688,2.178-0.022,3.279c-0.711,1.101-1.71,1.216-2.974,1.362
				c-1.352,0.156-3.035,0.35-4.168,2.104c-1.133,1.755-0.621,3.374-0.21,4.676c0.385,1.217,0.689,2.178-0.022,3.279
				c-0.711,1.101-1.71,1.216-2.974,1.362c-1.352,0.156-3.035,0.35-4.168,2.105c-1.133,1.755-0.621,3.374-0.21,4.676
				c0.385,1.217,0.689,2.178-0.022,3.279c-0.71,1.1-1.709,1.215-2.973,1.36c-1.352,0.156-3.035,0.35-4.167,2.104
				c-0.005,0.007-0.007,0.015-0.012,0.023c0.601,0.148,1.204,0.268,1.81,0.367c0.666-0.634,1.523-0.734,2.557-0.853
				c1.352-0.156,3.035-0.349,4.167-2.104c1.133-1.754,0.621-3.374,0.21-4.676c-0.385-1.217-0.689-2.178,0.022-3.279
				c0.711-1.101,1.71-1.216,2.974-1.362c1.352-0.156,3.035-0.35,4.168-2.105c1.133-1.755,0.621-3.374,0.209-4.676
				c-0.385-1.217-0.688-2.178,0.022-3.279c0.711-1.1,1.709-1.216,2.974-1.362c1.352-0.156,3.035-0.35,4.168-2.105
				c1.133-1.755,0.621-3.374,0.21-4.676c-0.384-1.217-0.688-2.178,0.022-3.279c0.711-1.101,1.71-1.217,2.975-1.363
				c1.352-0.156,3.035-0.35,4.168-2.105c1.133-1.755,0.621-3.374,0.21-4.676c-0.385-1.217-0.688-2.178,0.022-3.279
				c0.711-1.101,1.71-1.216,2.974-1.362c1.352-0.156,3.035-0.35,4.168-2.105c1.133-1.755,0.621-3.375,0.21-4.676
				c-0.385-1.217-0.688-2.179,0.022-3.28c0.71-1.1,1.709-1.216,2.974-1.361c1.352-0.156,3.035-0.35,4.168-2.104
				c1.133-1.755,0.621-3.375,0.21-4.676c-0.385-1.217-0.688-2.178,0.022-3.279c0.711-1.101,1.71-1.217,2.975-1.363
				c1.352-0.156,3.035-0.351,4.169-2.106c1.133-1.755,0.621-3.374,0.21-4.676c-0.384-1.217-0.688-2.179,0.022-3.28
				c0.712-1.102,1.711-1.218,2.976-1.364c1.352-0.157,3.035-0.351,4.169-2.107C351.981,193.701,351.568,192.152,351.171,190.883z"/>
		</g>
	</g>
	<g>
		<path style="fill:#D6874C;" d="M359.278,188.696c-0.406-1.221-0.727-2.185-0.027-3.323c0.239-0.388,0.119-0.897-0.268-1.136
			c-0.387-0.24-0.894-0.119-1.133,0.269c-1.105,1.796-0.566,3.413-0.133,4.713c0.406,1.221,0.727,2.185,0.027,3.323
			c-0.7,1.138-1.703,1.283-2.973,1.467c-1.352,0.195-3.035,0.438-4.14,2.234c-1.105,1.796-0.566,3.413-0.133,4.713
			c0.406,1.221,0.727,2.185,0.027,3.323c-0.7,1.138-1.703,1.283-2.973,1.466c-1.352,0.195-3.035,0.438-4.14,2.234
			c-1.104,1.795-0.565,3.412-0.132,4.712c0.406,1.22,0.727,2.184,0.028,3.321c-0.7,1.138-1.703,1.283-2.972,1.466
			c-1.352,0.195-3.035,0.438-4.139,2.233c-1.104,1.795-0.565,3.413-0.133,4.712c0.406,1.22,0.727,2.184,0.028,3.322
			c-0.7,1.138-1.703,1.282-2.972,1.465c-1.352,0.195-3.035,0.438-4.139,2.233c-1.104,1.795-0.565,3.413-0.132,4.712
			c0.406,1.22,0.728,2.184,0.028,3.321c-0.7,1.138-1.703,1.283-2.972,1.466c-1.352,0.195-3.035,0.438-4.139,2.233
			c-1.104,1.795-0.565,3.413-0.132,4.712c0.406,1.22,0.727,2.184,0.028,3.322c-0.699,1.137-1.702,1.282-2.972,1.465
			c-1.352,0.195-3.035,0.437-4.139,2.232c-1.104,1.795-0.565,3.412-0.132,4.712c0.406,1.22,0.727,2.184,0.028,3.321
			c-0.7,1.138-1.702,1.282-2.972,1.465c-1.352,0.195-3.035,0.438-4.139,2.233c-1.104,1.795-0.565,3.412-0.132,4.712
			c0.406,1.22,0.728,2.184,0.028,3.321c-0.7,1.138-1.703,1.282-2.972,1.465c-1.352,0.195-3.035,0.438-4.139,2.233
			c-0.101,0.164-0.134,0.349-0.114,0.526c0.402,0.024,0.805,0.05,1.207,0.082c0.152,0.012,0.304,0.028,0.456,0.041
			c0.69-0.938,1.641-1.076,2.824-1.247c1.352-0.195,3.035-0.438,4.139-2.233c1.104-1.795,0.565-3.412,0.132-4.712
			c-0.406-1.22-0.728-2.184-0.028-3.321c0.7-1.138,1.702-1.282,2.972-1.465c1.352-0.195,3.035-0.438,4.139-2.233
			c1.104-1.795,0.565-3.412,0.132-4.711c-0.406-1.22-0.728-2.184-0.028-3.321c0.7-1.137,1.702-1.282,2.972-1.465
			c1.352-0.195,3.035-0.437,4.139-2.232c1.104-1.795,0.565-3.413,0.133-4.712c-0.406-1.22-0.728-2.184-0.028-3.321
			c0.7-1.138,1.703-1.283,2.972-1.466c1.352-0.195,3.035-0.438,4.139-2.233c1.104-1.795,0.565-3.412,0.133-4.712
			c-0.407-1.22-0.728-2.184-0.028-3.321c0.7-1.138,1.703-1.282,2.972-1.465c1.352-0.195,3.035-0.438,4.139-2.233
			c1.104-1.795,0.566-3.413,0.133-4.712c-0.406-1.22-0.728-2.184-0.028-3.322c0.7-1.138,1.703-1.282,2.972-1.465
			c1.352-0.195,3.035-0.438,4.139-2.233c1.104-1.795,0.565-3.413,0.132-4.712c-0.406-1.22-0.727-2.184-0.028-3.321
			c0.7-1.138,1.703-1.283,2.973-1.466c1.352-0.195,3.035-0.438,4.139-2.234c1.104-1.796,0.566-3.413,0.133-4.713
			c-0.406-1.221-0.727-2.184-0.027-3.323c0.7-1.138,1.703-1.283,2.973-1.466c1.352-0.195,3.035-0.438,4.14-2.234
			C360.249,191.613,359.711,189.995,359.278,188.696z"/>
	</g>
	<g>
		<path style="fill:#D6874C;" d="M366.094,187.981c-0.405-1.241-0.726-2.221-0.008-3.406c0.236-0.39,0.113-0.898-0.276-1.134
			c-0.389-0.236-0.895-0.113-1.131,0.277c-1.112,1.835-0.578,3.467-0.15,4.778c0.406,1.241,0.726,2.221,0.008,3.406
			c-0.718,1.185-1.733,1.351-3.018,1.561c-1.358,0.222-3.048,0.499-4.159,2.333c-1.112,1.835-0.578,3.467-0.15,4.778
			c0.406,1.241,0.726,2.221,0.008,3.405c-0.718,1.185-1.733,1.351-3.017,1.561c-1.358,0.222-3.048,0.499-4.159,2.333
			c-1.111,1.834-0.578,3.466-0.149,4.777c0.406,1.24,0.726,2.22,0.009,3.404c-0.718,1.184-1.733,1.35-3.017,1.561
			c-1.358,0.222-3.048,0.498-4.159,2.333c-1.111,1.834-0.578,3.466-0.149,4.777c0.406,1.24,0.726,2.22,0.008,3.404
			c-0.718,1.184-1.732,1.35-3.017,1.56c-1.358,0.222-3.048,0.498-4.159,2.332c-1.111,1.834-0.578,3.466-0.149,4.777
			c0.406,1.24,0.726,2.22,0.009,3.404c-0.718,1.184-1.732,1.35-3.017,1.56c-1.358,0.222-3.047,0.498-4.159,2.333
			c-1.111,1.834-0.578,3.466-0.149,4.777c0.406,1.24,0.726,2.22,0.009,3.404c-0.717,1.184-1.732,1.35-3.016,1.56
			c-1.358,0.222-3.047,0.498-4.159,2.331c-1.112,1.834-0.578,3.465-0.149,4.776c0.406,1.24,0.726,2.22,0.009,3.404
			c-0.717,1.184-1.732,1.35-3.017,1.56c-1.358,0.222-3.047,0.498-4.159,2.332c-1.111,1.834-0.578,3.465-0.149,4.776
			c0.406,1.24,0.726,2.22,0.009,3.404c-0.718,1.184-1.732,1.35-3.017,1.56c-1.028,0.168-2.244,0.378-3.257,1.262
			c1.445-0.005,2.889-0.045,4.331-0.197c0.287-0.03,0.53,0.011,0.733,0.1c0.144-0.006,0.288-0.011,0.432-0.017
			c0.802-0.317,1.579-0.851,2.185-1.85c1.111-1.834,0.577-3.465,0.149-4.776c-0.406-1.24-0.726-2.22-0.009-3.404
			c0.717-1.184,1.732-1.35,3.016-1.56c1.358-0.222,3.048-0.498,4.159-2.332c1.111-1.834,0.578-3.465,0.149-4.776
			c-0.406-1.24-0.726-2.22-0.009-3.404c0.717-1.184,1.732-1.35,3.016-1.559c1.358-0.222,3.048-0.498,4.159-2.332
			c1.111-1.834,0.578-3.466,0.149-4.777c-0.405-1.24-0.726-2.22-0.008-3.404c0.718-1.184,1.732-1.35,3.017-1.56
			c1.358-0.222,3.048-0.498,4.159-2.332c1.112-1.834,0.578-3.466,0.149-4.777c-0.405-1.241-0.726-2.22-0.008-3.404
			c0.717-1.184,1.732-1.35,3.017-1.56c1.358-0.222,3.048-0.498,4.159-2.332c1.112-1.834,0.578-3.466,0.149-4.777
			c-0.406-1.24-0.726-2.22-0.008-3.404c0.718-1.184,1.733-1.35,3.017-1.561c1.358-0.222,3.048-0.498,4.159-2.333
			c1.111-1.834,0.578-3.466,0.149-4.777c-0.406-1.24-0.726-2.22-0.008-3.404c0.718-1.185,1.732-1.351,3.017-1.561
			c1.358-0.222,3.048-0.499,4.159-2.333c1.112-1.835,0.578-3.466,0.15-4.778c-0.406-1.241-0.726-2.221-0.008-3.405
			c0.718-1.185,1.733-1.351,3.017-1.561c1.358-0.222,3.048-0.499,4.16-2.333C367.056,190.924,366.522,189.292,366.094,187.981z"/>
	</g>
	<g>
		<path style="fill:#2D1A14;" d="M403.02,165.559L403.02,165.559c0.236,0.472,0.043,1.051-0.429,1.287l-36.699,18.361
			c-0.472,0.236-1.051,0.043-1.287-0.429l0,0c-0.236-0.472-0.043-1.051,0.429-1.287l36.699-18.362
			C402.205,164.895,402.784,165.087,403.02,165.559z"/>
		<path style="fill:#2D1A14;" d="M367.461,184.423l-2.064,3.442c-1.145,1.91-3.055,3.407-5.278,4.136l-12.31,4.038
			c-0.347,0.114-0.513-0.306-0.189-0.477l12.703-6.71l-1.288-2.574l-12.938,6.843c-0.246,0.13-0.443-0.151-0.224-0.319l10.434-8.013
			c1.395-1.071,3.105-1.699,4.82-1.768l5.272-0.213"/>
		<path style="fill:#2D1A14;" d="M363.742,186.337L363.742,186.337c0.083,0.165,0.015,0.368-0.15,0.451l-16.282,8.146
			c-0.165,0.083-0.368,0.015-0.451-0.15l0,0c-0.083-0.165-0.015-0.368,0.15-0.45l16.282-8.146
			C363.456,186.105,363.659,186.172,363.742,186.337z"/>
		<path style="fill:#2D1A14;" d="M363.227,185.308L363.227,185.308c0.083,0.165,0.015,0.368-0.15,0.45l-16.282,8.146
			c-0.165,0.083-0.368,0.015-0.451-0.15l0,0c-0.083-0.165-0.015-0.368,0.15-0.451l16.282-8.146
			C362.941,185.075,363.144,185.143,363.227,185.308z"/>
	</g>
	<path style="fill:none;stroke:#2D1A14;stroke-width:0.8233;stroke-linecap:round;stroke-linejoin:round;stroke-miterlimit:10;" d="
		M377.213,184.643c0,0-2.881,5.763-0.549,8.644"/>
	<g>
		<path style="fill:#D6874C;" d="M399.96,143.857c0.017-0.41,0.028-0.821,0.028-1.235v-33.958c0-17.318-14.17-31.488-31.488-31.488
			h0c-17.318,0-31.488,14.17-31.488,31.488v33.958c0,0.414,0.011,0.825,0.028,1.235H399.96z"/>
		
			<line style="fill:none;stroke:#211D1D;stroke-width:1.0433;stroke-linecap:round;stroke-linejoin:round;stroke-miterlimit:10;" x1="368.5" y1="77.177" x2="368.5" y2="0"/>
		
			<line style="fill:none;stroke:#211D1D;stroke-width:1.0433;stroke-linecap:round;stroke-linejoin:round;stroke-miterlimit:10;" x1="337.012" y1="129.426" x2="398.136" y2="129.426"/>
	</g>
	<g>
		<g>
			<g>
				<path style="fill:#877E3C;" d="M671.143,258.821c7.415-3.651,12.24-11.722,12.37-19.912c0.066-4.206-0.865-8.879,1.66-12.265
					c2.636-3.536,7.875-3.993,11.214-6.89c3.697-3.207,4.266-9.001,2.258-13.44c-1.981-4.38-6.165-8.994-3.875-13.224
					c0.858-1.585,2.466-2.602,3.812-3.811c4.356-3.911,6.038-10.55,3.86-15.954c-2.179-5.405-8.179-9.107-14.025-8.458
					c-5.847,0.649-10.932,5.735-11.317,11.541c-0.24,3.61,1.085,7.566-0.8,10.666c-2.272,3.737-7.644,3.845-11.463,6.025
					c-4.024,2.296-6.229,7.332-5.168,11.806c2.629,11.09-0.569,9.734-8.501,15.832c-4.838,3.719-10.122,10.458-10.556,16.71
					C639.516,253.206,656.489,266.035,671.143,258.821z"/>
				
					<path style="fill:none;stroke:#211D1D;stroke-width:1.0433;stroke-linecap:round;stroke-linejoin:round;stroke-miterlimit:10;" d="
					M647.846,280.039c0-2.28,37.017-90.202,37.017-90.202"/>
				
					<line style="fill:none;stroke:#211D1D;stroke-width:1.0433;stroke-linecap:round;stroke-linejoin:round;stroke-miterlimit:10;" x1="669.159" y1="192.426" x2="671.776" y2="220.9"/>
				
					<path style="fill:none;stroke:#211D1D;stroke-width:1.0433;stroke-linecap:round;stroke-linejoin:round;stroke-miterlimit:10;" d="
					M664.97,239.02c1.571-1.553,18.846-8.801,18.846-8.801"/>
				<path style="fill:#877E3C;" d="M605.754,270.715c-8.198-1.174-15.333-7.348-18.046-15.088
					c-1.393-3.975-1.987-8.701-5.455-11.137c-3.622-2.543-8.743-1.357-12.83-3.076c-4.526-1.903-6.898-7.23-6.395-12.068
					c0.497-4.773,3.012-10.45-0.501-13.759c-1.316-1.24-3.165-1.709-4.826-2.441c-5.374-2.368-9.072-8.153-8.711-13.961
					c0.36-5.807,4.889-11.18,10.647-12.372c5.759-1.192,12.197,2.066,14.399,7.462c1.369,3.355,1.362,7.522,4.133,9.884
					c3.34,2.847,8.476,1.289,12.793,2.177c4.548,0.937,8.235,5.038,8.643,9.615c1.01,11.347,3.619,9.07,13.081,12.409
					c5.771,2.036,12.922,6.803,15.311,12.608C634.02,255.601,621.955,273.036,605.754,270.715z"/>
				
					<path style="fill:none;stroke:#211D1D;stroke-width:1.0433;stroke-linecap:round;stroke-linejoin:round;stroke-miterlimit:10;" d="
					M634.592,283.664c-0.721-2.166-63.683-74.229-63.683-74.229"/>
				
					<line style="fill:none;stroke:#211D1D;stroke-width:1.0433;stroke-linecap:round;stroke-linejoin:round;stroke-miterlimit:10;" x1="586.644" y1="207.037" x2="593.162" y2="234.892"/>
				
					<path style="fill:none;stroke:#211D1D;stroke-width:1.0433;stroke-linecap:round;stroke-linejoin:round;stroke-miterlimit:10;" d="
					M605.356,249.999c-1.983-0.99-20.684-2.531-20.684-2.531"/>
				<path style="fill:#6B682D;" d="M652.372,238.155c5.276-7.355,5.714-17.667,1.533-25.682c-2.147-4.116-5.507-8.171-4.838-12.755
					c0.699-4.786,5.542-7.923,7.259-12.451c1.901-5.013-0.593-10.927-4.875-14.202c-4.225-3.231-10.711-5.557-10.713-10.839
					c-0.001-1.979,1.024-3.793,1.695-5.658c2.17-6.035,0.313-13.341-4.643-17.465c-4.956-4.124-12.724-4.631-18.056-0.995
					c-5.332,3.636-7.592,11.186-4.914,17.018c1.665,3.626,5.03,6.783,4.831,10.761c-0.239,4.795-5.395,7.661-7.955,11.74
					c-2.697,4.297-2.189,10.318,1.192,14.113c8.381,9.409,4.565,9.738,0.075,19.733c-2.739,6.096-4.323,15.353-1.457,21.642
					C618.733,248.97,641.946,252.691,652.372,238.155z"/>
				
					<line style="fill:none;stroke:#211D1D;stroke-width:1.0433;stroke-linecap:round;stroke-linejoin:round;stroke-miterlimit:10;" x1="628.85" y1="160.846" x2="639.843" y2="288.202"/>
				
					<line style="fill:none;stroke:#211D1D;stroke-width:1.0433;stroke-linecap:round;stroke-linejoin:round;stroke-miterlimit:10;" x1="620.997" y1="214.687" x2="633.561" y2="230.219"/>
				
					<line style="fill:none;stroke:#211D1D;stroke-width:1.0433;stroke-linecap:round;stroke-linejoin:round;stroke-miterlimit:10;" x1="639.843" y1="172.753" x2="632.514" y2="198.121"/>
				<polygon style="fill:#2D1A14;" points="612.493,279.763 626.956,356.045 652.438,356.045 665.523,281.125 				"/>
				
					<line style="fill:none;stroke:#FFF8F3;stroke-width:0.9099;stroke-linecap:round;stroke-linejoin:round;stroke-miterlimit:10;" x1="615.762" y1="292.344" x2="663.4" y2="293.897"/>
			</g>
		</g>
		
			<polyline style="fill:none;stroke:#211D1D;stroke-width:1.0433;stroke-linecap:round;stroke-linejoin:round;stroke-miterlimit:10;" points="
			631.543,351.996 616.342,474.769 646.159,350.827 		"/>
		
			<polygon style="fill:none;stroke:#211D1D;stroke-width:1.0433;stroke-linecap:round;stroke-linejoin:round;stroke-miterlimit:10;" points="
			629.204,336.211 663.113,471.846 650.836,335.626 		"/>
	</g>
	<path style="fill:#2D1A14;" d="M435.86,304.44c0.251-0.911,0.388-1.867,0.388-2.855v-30.589c0-5.944-4.864-10.808-10.808-10.808
		l0,0c-5.945,0-10.808,4.864-10.808,10.808v30.589c0,0.988,0.137,1.944,0.388,2.855H435.86z"/>
	<g>
		<path style="fill:#2D1A14;" d="M422.109,260.664l1.564-27.462h3.875l1.699,27.87C429.246,261.071,423.944,263.451,422.109,260.664
			z"/>
		<path style="fill:#2D1A14;" d="M427.853,233.677h-4.35c-0.692,0-1.258-0.566-1.258-1.258l0,0c0-0.692,0.566-1.258,1.258-1.258
			h4.35c0.692,0,1.258,0.566,1.258,1.258l0,0C429.11,233.111,428.544,233.677,427.853,233.677z"/>
	</g>
	<path style="fill:none;stroke:#FFF8F3;stroke-width:0.4079;stroke-miterlimit:10;" d="M432.985,277.794h-2.389
		c-0.016-2.88-2.375-5.231-5.258-5.231c-2.883,0-5.242,2.351-5.258,5.231h-2.389v15.692h2.957c0.869,1.715,2.646,2.9,4.691,2.9
		c2.044,0,3.822-1.185,4.691-2.9h2.956V277.794z"/>
	<g>
		<g>
			<path style="fill:#FF8772;" d="M494.675,287.354c0.166,2.223,11.379,2.048,11.379,2.048s-17.01,13.984-15.31,16.347
				c0.069,0.095,0.161,0.161,0.264,0.213c0.739-0.143,1.48-0.272,2.223-0.382c4.221-1.917,11.957-8.785,11.957-8.785
				s-2.49,2.501-5.061,5.494c2.535-0.883,5.184-1.348,7.887-1.529c0.32-0.392,0.501-0.62,0.501-0.62s-0.171,0.227-0.457,0.617
				c3.93-0.258,7.968,0.077,11.918,0.573c4.26-5.483,10.301-13.928,10.301-13.928l-6.7-5.793
				C523.578,281.61,494.395,283.603,494.675,287.354z"/>
		</g>
		<path style="fill:#FF8772;" d="M506.692,304.707c0.11,1.586,1.64,2.818,3.252,3.056c1.612,0.239,3.25-0.322,4.686-1.089
			c3.212-1.718,5.791-4.545,7.161-7.855c0.928-2.24,1.181-5.108-0.59-6.776c-1.496-1.41-3.854-1.421-5.927-1.143
			c-4.938,0.664-14.255,3.054-16.443,8.149C496.953,303.424,503.633,309.645,506.692,304.707z"/>
	</g>
</g>
</svg>
